<?xml version="1.0" encoding="UTF-8"?>
<svg width="120" height="120" viewBox="0 0 120 120" fill="none" xmlns="http://www.w3.org/2000/svg">
  <!-- Background -->
  <circle cx="60" cy="60" r="60" fill="#E5F0FF"/>
  
  <!-- Stylized couple silhouette -->
  <path d="M45 40C41 40 38 43 38 47C38 55 45 60 50 62C55 60 62 55 62 47C62 43 59 40 55 40C52 40 50 42 50 44C50 42 48 40 45 40Z" fill="#0066CC" fill-opacity="0.6"/>
  <path d="M70 45C66 45 63 48 63 52C63 60 70 65 75 67C80 65 87 60 87 52C87 48 84 45 80 45C77 45 75 47 75 49C75 47 73 45 70 45Z" fill="#0066CC" fill-opacity="0.4"/>
</svg> 