<?xml version="1.0" encoding="UTF-8"?>
<svg width="120" height="120" viewBox="0 0 120 120" fill="none" xmlns="http://www.w3.org/2000/svg">
  <!-- Background -->
  <circle cx="60" cy="60" r="60" fill="#F0F7FF"/>
  
  <!-- Stylized couple silhouette -->
  <path d="M40 45C36 45 33 48 33 52C33 60 40 65 45 67C50 65 57 60 57 52C57 48 54 45 50 45C47 45 45 47 45 49C45 47 43 45 40 45Z" fill="#0066CC" fill-opacity="0.5"/>
  <path d="M65 40C61 40 58 43 58 47C58 55 65 60 70 62C75 60 82 55 82 47C82 43 79 40 75 40C72 40 70 42 70 44C70 42 68 40 65 40Z" fill="#0066CC" fill-opacity="0.3"/>
</svg> 